<svg width="171" height="42" viewBox="0 0 171 42" fill="none" xmlns="http://www.w3.org/2000/svg">
<path d="M21.9403 7.48605V21.7747C21.9403 22.3329 21.8287 22.8073 21.6054 23.198C21.3822 23.5887 21.0938 23.9143 20.7403 24.1748C20.3868 24.4167 19.9775 24.6027 19.5124 24.7329C19.0472 24.8446 18.5821 24.9004 18.117 24.9004H5.39112C4.9446 24.9004 4.48877 24.8353 4.02365 24.705C3.57713 24.5748 3.16781 24.3794 2.79571 24.119C2.44222 23.8399 2.15384 23.505 1.93058 23.1143C1.70732 22.7236 1.59569 22.2771 1.59569 21.7747V18.8723H6.53533V20.8817H17.0007V11.5047H13.596V7.48605H21.9403ZM46.313 7.48605L38.1082 16.1932L46.313 24.9004H39.8385L34.6198 19.3189L29.3731 24.9004H22.8986L31.0755 16.1932L22.8986 7.48605H29.3731L34.6198 13.0676L39.8385 7.48605H46.313ZM53.7631 24.9004V11.5047H47.2606V7.48605H65.3447V11.5047H58.6748V24.9004H53.7631Z" fill="#5B38DB"/>
<rect width="99.319" height="30.1595" transform="translate(71.3398 0.820801)" fill="#5B38DB"/>
<path d="M74.7558 10.6117C74.7558 10.0535 74.8582 9.57912 75.0628 9.18841C75.2861 8.7977 75.5745 8.48142 75.928 8.23955C76.3001 7.97908 76.7094 7.79303 77.1559 7.6814C77.6024 7.55117 78.0675 7.48605 78.5513 7.48605H91.2771C91.7237 7.48605 92.1702 7.55117 92.6167 7.6814C93.0632 7.81164 93.4632 8.01629 93.8167 8.29537C94.1888 8.55584 94.4865 8.88143 94.7098 9.27213C94.9516 9.66284 95.0726 10.1094 95.0726 10.6117V13.542H90.1329V11.5047H79.6676V20.8817H90.1329V18.8723H95.0726V21.7747C95.0726 22.2771 94.9516 22.7236 94.7098 23.1143C94.4865 23.505 94.1888 23.8399 93.8167 24.119C93.4632 24.3794 93.0632 24.5748 92.6167 24.705C92.1702 24.8353 91.7237 24.9004 91.2771 24.9004H78.5513C78.0675 24.9004 77.6024 24.8446 77.1559 24.7329C76.7094 24.6027 76.3001 24.4167 75.928 24.1748C75.5745 23.9143 75.2861 23.5887 75.0628 23.198C74.8582 22.8073 74.7558 22.3329 74.7558 21.7747V10.6117ZM96.7571 10.6117C96.7571 10.0535 96.8594 9.57912 97.064 9.18841C97.2873 8.7977 97.5757 8.48142 97.9292 8.23955C98.3013 7.97908 98.7106 7.79303 99.1571 7.6814C99.6036 7.55117 100.069 7.48605 100.552 7.48605H113.278C113.725 7.48605 114.171 7.55117 114.618 7.6814C115.064 7.81164 115.464 8.01629 115.818 8.29537C116.19 8.55584 116.488 8.88143 116.711 9.27213C116.953 9.66284 117.074 10.1094 117.074 10.6117V21.7747C117.074 22.2771 116.953 22.7236 116.711 23.1143C116.488 23.505 116.19 23.8399 115.818 24.119C115.464 24.3794 115.064 24.5748 114.618 24.705C114.171 24.8353 113.725 24.9004 113.278 24.9004H100.552C100.069 24.9004 99.6036 24.8446 99.1571 24.7329C98.7106 24.6027 98.3013 24.4167 97.9292 24.1748C97.5757 23.9143 97.2873 23.5887 97.064 23.198C96.8594 22.8073 96.7571 22.3329 96.7571 21.7747V10.6117ZM112.134 20.8817V11.5047H101.669V20.8817H112.134ZM131.763 24.9004H129.14L123.67 16.5839V24.9004H118.758V7.48605H123.447L130.452 18.2305L137.456 7.48605H142.145V24.9004H137.233V16.5839L131.763 24.9004ZM156.817 24.9004H154.194L148.724 16.5839V24.9004H143.812V7.48605H148.5L155.505 18.2305L162.51 7.48605H167.198V24.9004H162.287V16.5839L156.817 24.9004Z" fill="white"/>
<path d="M151.203 41.2568L135.621 27.6501H146.924L151.203 41.2568Z" fill="#5B38DB"/>
</svg>
